<svg width="24" height="24" viewBox="0 0 24 24" fill="none" xmlns="http://www.w3.org/2000/svg">
<path fill-rule="evenodd" clip-rule="evenodd" d="M17.2845 10.2988C16.2835 10.2988 15.4717 11.1107 15.4717 12.1117C15.4717 13.1138 16.2837 13.9255 17.2845 13.9255H21.1712C21.5854 13.9255 21.9212 14.2613 21.9212 14.6755C21.9212 15.0897 21.5854 15.4255 21.1712 15.4255H17.2845C15.4549 15.4255 13.9717 13.9419 13.9717 12.1117C13.9717 10.2822 15.4551 8.79883 17.2845 8.79883H21.1407C21.5549 8.79883 21.8907 9.13461 21.8907 9.54883C21.8907 9.96304 21.5549 10.2988 21.1407 10.2988H17.2845Z" fill="#ADB5BD"/>
<path fill-rule="evenodd" clip-rule="evenodd" d="M16.6748 12.0527C16.6748 11.6385 17.0106 11.3027 17.4248 11.3027H17.7219C18.1362 11.3027 18.4719 11.6385 18.4719 12.0527C18.4719 12.4669 18.1362 12.8027 17.7219 12.8027H17.4248C17.0106 12.8027 16.6748 12.4669 16.6748 12.0527Z" fill="#ADB5BD"/>
<path fill-rule="evenodd" clip-rule="evenodd" d="M6.8562 8.14355C6.8562 7.72934 7.19199 7.39355 7.6062 7.39355H11.6662C12.0804 7.39355 12.4162 7.72934 12.4162 8.14355C12.4162 8.55777 12.0804 8.89355 11.6662 8.89355H7.6062C7.19199 8.89355 6.8562 8.55777 6.8562 8.14355Z" fill="#ADB5BD"/>
<path fill-rule="evenodd" clip-rule="evenodd" d="M5.25573 6.13408C4.04345 7.24706 3.46411 9.10454 3.46411 12.2529C3.46411 15.4008 4.04343 17.2583 5.25576 18.3714C6.48734 19.5022 8.5581 20.042 12.0151 20.042C15.4715 20.042 17.542 19.5022 18.7735 18.3714C19.9857 17.2583 20.5651 15.4008 20.5651 12.2529C20.5651 9.10454 19.9857 7.24704 18.7735 6.13406C17.5421 5.0034 15.4716 4.46387 12.0151 4.46387C8.55804 4.46387 6.4873 5.0034 5.25573 6.13408ZM4.2413 5.02913C5.91616 3.49147 8.4959 2.96387 12.0151 2.96387C15.5338 2.96387 18.1133 3.49148 19.788 5.02915C21.482 6.5845 22.0651 8.99652 22.0651 12.2529C22.0651 15.5089 21.482 17.9208 19.788 19.4763C18.1133 21.0141 15.5338 21.542 12.0151 21.542C8.49584 21.542 5.91612 21.0141 4.24127 19.4763C2.54717 17.9209 1.96411 15.5089 1.96411 12.2529C1.96411 8.99652 2.54716 6.58449 4.2413 5.02913Z" fill="#ADB5BD"/>
</svg>
